<mxfile host="app.diagrams.net" agent="Mozilla/5.0 (Windows NT 10.0; Win64; x64) AppleWebKit/537.36 (KHTML, like Gecko) Chrome/116.0.0.0 Safari/537.36" version="26.2.15">
  <diagram name="第 1 页" id="o4eZLWBOoZ1R6lj8plFQ">
    <mxGraphModel dx="1043" dy="565" grid="1" gridSize="10" guides="1" tooltips="1" connect="1" arrows="1" fold="1" page="1" pageScale="1" pageWidth="827" pageHeight="1169" math="0" shadow="0">
      <root>
        <mxCell id="0" />
        <mxCell id="1" parent="0" />
        <mxCell id="afSKzVF0Jw_LSbCJ2PBr-6" value="" style="edgeStyle=orthogonalEdgeStyle;rounded=0;orthogonalLoop=1;jettySize=auto;html=1;" edge="1" parent="1" source="afSKzVF0Jw_LSbCJ2PBr-2" target="afSKzVF0Jw_LSbCJ2PBr-5">
          <mxGeometry relative="1" as="geometry" />
        </mxCell>
        <mxCell id="afSKzVF0Jw_LSbCJ2PBr-2" value="开始" style="ellipse;whiteSpace=wrap;html=1;" vertex="1" parent="1">
          <mxGeometry x="360" y="50" width="110" height="60" as="geometry" />
        </mxCell>
        <mxCell id="afSKzVF0Jw_LSbCJ2PBr-8" value="" style="edgeStyle=orthogonalEdgeStyle;rounded=0;orthogonalLoop=1;jettySize=auto;html=1;" edge="1" parent="1" source="afSKzVF0Jw_LSbCJ2PBr-5" target="afSKzVF0Jw_LSbCJ2PBr-7">
          <mxGeometry relative="1" as="geometry" />
        </mxCell>
        <mxCell id="afSKzVF0Jw_LSbCJ2PBr-5" value="实验平台分流" style="whiteSpace=wrap;html=1;" vertex="1" parent="1">
          <mxGeometry x="355" y="190" width="120" height="60" as="geometry" />
        </mxCell>
        <mxCell id="afSKzVF0Jw_LSbCJ2PBr-10" value="" style="edgeStyle=orthogonalEdgeStyle;rounded=0;orthogonalLoop=1;jettySize=auto;html=1;" edge="1" parent="1" source="afSKzVF0Jw_LSbCJ2PBr-7" target="afSKzVF0Jw_LSbCJ2PBr-9">
          <mxGeometry relative="1" as="geometry">
            <Array as="points">
              <mxPoint x="80" y="350" />
              <mxPoint x="80" y="1560" />
            </Array>
          </mxGeometry>
        </mxCell>
        <mxCell id="afSKzVF0Jw_LSbCJ2PBr-12" value="" style="edgeStyle=orthogonalEdgeStyle;rounded=0;orthogonalLoop=1;jettySize=auto;html=1;" edge="1" parent="1" source="afSKzVF0Jw_LSbCJ2PBr-7" target="afSKzVF0Jw_LSbCJ2PBr-11">
          <mxGeometry relative="1" as="geometry" />
        </mxCell>
        <mxCell id="afSKzVF0Jw_LSbCJ2PBr-7" value="命中超级主题实验？" style="rhombus;whiteSpace=wrap;html=1;" vertex="1" parent="1">
          <mxGeometry x="337.5" y="310" width="155" height="80" as="geometry" />
        </mxCell>
        <mxCell id="afSKzVF0Jw_LSbCJ2PBr-9" value="结束" style="ellipse;whiteSpace=wrap;html=1;" vertex="1" parent="1">
          <mxGeometry x="370" y="1560" width="90" height="50" as="geometry" />
        </mxCell>
        <mxCell id="afSKzVF0Jw_LSbCJ2PBr-16" value="" style="edgeStyle=orthogonalEdgeStyle;rounded=0;orthogonalLoop=1;jettySize=auto;html=1;" edge="1" parent="1" source="afSKzVF0Jw_LSbCJ2PBr-11" target="afSKzVF0Jw_LSbCJ2PBr-15">
          <mxGeometry relative="1" as="geometry" />
        </mxCell>
        <mxCell id="afSKzVF0Jw_LSbCJ2PBr-11" value="常规混排逻辑" style="whiteSpace=wrap;html=1;" vertex="1" parent="1">
          <mxGeometry x="355" y="480" width="120" height="60" as="geometry" />
        </mxCell>
        <mxCell id="afSKzVF0Jw_LSbCJ2PBr-13" value="Y" style="text;html=1;align=center;verticalAlign=middle;resizable=0;points=[];autosize=1;strokeColor=none;fillColor=none;" vertex="1" parent="1">
          <mxGeometry x="425" y="388" width="30" height="30" as="geometry" />
        </mxCell>
        <mxCell id="afSKzVF0Jw_LSbCJ2PBr-14" value="N" style="text;html=1;align=center;verticalAlign=middle;resizable=0;points=[];autosize=1;strokeColor=none;fillColor=none;" vertex="1" parent="1">
          <mxGeometry x="307.5" y="310" width="30" height="30" as="geometry" />
        </mxCell>
        <mxCell id="afSKzVF0Jw_LSbCJ2PBr-18" value="" style="edgeStyle=orthogonalEdgeStyle;rounded=0;orthogonalLoop=1;jettySize=auto;html=1;" edge="1" parent="1" source="afSKzVF0Jw_LSbCJ2PBr-15">
          <mxGeometry relative="1" as="geometry">
            <mxPoint x="415.0571428571427" y="770" as="targetPoint" />
          </mxGeometry>
        </mxCell>
        <mxCell id="afSKzVF0Jw_LSbCJ2PBr-15" value="组装资源" style="whiteSpace=wrap;html=1;" vertex="1" parent="1">
          <mxGeometry x="355" y="620" width="120" height="60" as="geometry" />
        </mxCell>
        <mxCell id="afSKzVF0Jw_LSbCJ2PBr-20" value="" style="edgeStyle=orthogonalEdgeStyle;rounded=0;orthogonalLoop=1;jettySize=auto;html=1;" edge="1" parent="1">
          <mxGeometry relative="1" as="geometry">
            <mxPoint x="415.0571428571427" y="880" as="sourcePoint" />
            <mxPoint x="415" y="980" as="targetPoint" />
          </mxGeometry>
        </mxCell>
        <mxCell id="afSKzVF0Jw_LSbCJ2PBr-22" value="" style="edgeStyle=orthogonalEdgeStyle;rounded=0;orthogonalLoop=1;jettySize=auto;html=1;" edge="1" parent="1" target="afSKzVF0Jw_LSbCJ2PBr-21">
          <mxGeometry relative="1" as="geometry">
            <mxPoint x="415" y="1040" as="sourcePoint" />
          </mxGeometry>
        </mxCell>
        <mxCell id="afSKzVF0Jw_LSbCJ2PBr-31" style="edgeStyle=orthogonalEdgeStyle;rounded=0;orthogonalLoop=1;jettySize=auto;html=1;" edge="1" parent="1" source="afSKzVF0Jw_LSbCJ2PBr-21">
          <mxGeometry relative="1" as="geometry">
            <mxPoint x="415" y="1291.5151977539062" as="targetPoint" />
          </mxGeometry>
        </mxCell>
        <mxCell id="afSKzVF0Jw_LSbCJ2PBr-21" value="从本地缓存获取素材 并请求定投" style="whiteSpace=wrap;html=1;align=left;" vertex="1" parent="1">
          <mxGeometry x="287.5" y="1130" width="255" height="60" as="geometry" />
        </mxCell>
        <mxCell id="afSKzVF0Jw_LSbCJ2PBr-30" style="edgeStyle=orthogonalEdgeStyle;rounded=0;orthogonalLoop=1;jettySize=auto;html=1;entryX=0.5;entryY=0;entryDx=0;entryDy=0;" edge="1" parent="1" source="afSKzVF0Jw_LSbCJ2PBr-23" target="afSKzVF0Jw_LSbCJ2PBr-9">
          <mxGeometry relative="1" as="geometry">
            <Array as="points">
              <mxPoint x="80" y="1020" />
              <mxPoint x="80" y="1560" />
            </Array>
          </mxGeometry>
        </mxCell>
        <mxCell id="afSKzVF0Jw_LSbCJ2PBr-23" value="&lt;span style=&quot;text-align: left;&quot;&gt;满足频控：&lt;/span&gt;&lt;br style=&quot;text-align: left;&quot;&gt;&lt;span style=&quot;text-align: left;&quot;&gt;1. 总数&lt;/span&gt;&lt;br style=&quot;text-align: left;&quot;&gt;&lt;span style=&quot;text-align: left;&quot;&gt;2. 前n位&lt;/span&gt;&lt;br style=&quot;text-align: left;&quot;&gt;&lt;span style=&quot;text-align: left;&quot;&gt;3. 间隔数&lt;/span&gt;" style="rhombus;whiteSpace=wrap;html=1;" vertex="1" parent="1">
          <mxGeometry x="247" y="980" width="336" height="80" as="geometry" />
        </mxCell>
        <mxCell id="afSKzVF0Jw_LSbCJ2PBr-24" value="Y" style="text;html=1;align=center;verticalAlign=middle;resizable=0;points=[];autosize=1;strokeColor=none;fillColor=none;" vertex="1" parent="1">
          <mxGeometry x="415" y="1058" width="30" height="30" as="geometry" />
        </mxCell>
        <mxCell id="afSKzVF0Jw_LSbCJ2PBr-25" value="N" style="text;html=1;align=center;verticalAlign=middle;resizable=0;points=[];autosize=1;strokeColor=none;fillColor=none;" vertex="1" parent="1">
          <mxGeometry x="240" y="980" width="30" height="30" as="geometry" />
        </mxCell>
        <mxCell id="afSKzVF0Jw_LSbCJ2PBr-29" style="edgeStyle=orthogonalEdgeStyle;rounded=0;orthogonalLoop=1;jettySize=auto;html=1;entryX=0.5;entryY=0;entryDx=0;entryDy=0;" edge="1" parent="1" source="afSKzVF0Jw_LSbCJ2PBr-26" target="afSKzVF0Jw_LSbCJ2PBr-9">
          <mxGeometry relative="1" as="geometry">
            <Array as="points">
              <mxPoint x="80" y="830" />
              <mxPoint x="80" y="1560" />
            </Array>
          </mxGeometry>
        </mxCell>
        <mxCell id="afSKzVF0Jw_LSbCJ2PBr-26" value="&lt;span style=&quot;text-align: left;&quot;&gt;满足条件：&lt;/span&gt;&lt;br style=&quot;text-align: left;&quot;&gt;&lt;span style=&quot;text-align: left;&quot;&gt;1. 是常规结果页列表资源&lt;/span&gt;&lt;br style=&quot;text-align: left;&quot;&gt;&lt;span style=&quot;text-align: left;&quot;&gt;2. 客户端版本&lt;/span&gt;&lt;br style=&quot;text-align: left;&quot;&gt;&lt;span style=&quot;text-align: left;&quot;&gt;3. 边下边玩&lt;/span&gt;&lt;br style=&quot;text-align: left;&quot;&gt;&lt;span style=&quot;text-align: left;&quot;&gt;4. 云游&lt;/span&gt;&lt;br style=&quot;text-align: left;&quot;&gt;&lt;span style=&quot;text-align: left;&quot;&gt;5. 意图词性&lt;/span&gt;" style="rhombus;whiteSpace=wrap;html=1;" vertex="1" parent="1">
          <mxGeometry x="203.75" y="770" width="422.5" height="120" as="geometry" />
        </mxCell>
        <mxCell id="afSKzVF0Jw_LSbCJ2PBr-27" value="N" style="text;html=1;align=center;verticalAlign=middle;resizable=0;points=[];autosize=1;strokeColor=none;fillColor=none;" vertex="1" parent="1">
          <mxGeometry x="203.75" y="770" width="30" height="30" as="geometry" />
        </mxCell>
        <mxCell id="afSKzVF0Jw_LSbCJ2PBr-28" value="这里串行调定投，网络IO平均耗时1.27ms&lt;br&gt;但是场景比较少，暂时可接受" style="text;html=1;align=center;verticalAlign=middle;resizable=0;points=[];autosize=1;strokeColor=none;fillColor=none;" vertex="1" parent="1">
          <mxGeometry x="550" y="1140" width="240" height="40" as="geometry" />
        </mxCell>
        <mxCell id="afSKzVF0Jw_LSbCJ2PBr-33" style="edgeStyle=orthogonalEdgeStyle;rounded=0;orthogonalLoop=1;jettySize=auto;html=1;entryX=0.5;entryY=0;entryDx=0;entryDy=0;" edge="1" parent="1" source="afSKzVF0Jw_LSbCJ2PBr-32" target="afSKzVF0Jw_LSbCJ2PBr-9">
          <mxGeometry relative="1" as="geometry" />
        </mxCell>
        <mxCell id="afSKzVF0Jw_LSbCJ2PBr-32" value="组装DTO" style="whiteSpace=wrap;html=1;align=center;" vertex="1" parent="1">
          <mxGeometry x="287.5" y="1300" width="255" height="60" as="geometry" />
        </mxCell>
      </root>
    </mxGraphModel>
  </diagram>
</mxfile>
